<svg xmlns="http://www.w3.org/2000/svg" viewBox="0 0 32 32">
  <defs>
    <linearGradient id="g" x1="0" y1="0" x2="0" y2="1">
      <stop offset="0%" stop-color="#333"/>
      <stop offset="100%" stop-color="#111"/>
    </linearGradient>
  </defs>
  <!-- Helmet dome -->
  <path d="M6 18C6 9 10 4 16 4C22 4 26 9 26 18L24 22L20 24L16 25L12 24L8 22Z" fill="url(#g)" stroke="#444" stroke-width="0.5"/>
  <!-- Face plate -->
  <path d="M10 16L12 22L16 23L20 22L22 16Z" fill="#1a1a1a"/>
  <!-- Eyes -->
  <path d="M11 16L13 14L15 16L13 17Z" fill="#222" stroke="#555" stroke-width="0.3"/>
  <path d="M21 16L19 14L17 16L19 17Z" fill="#222" stroke="#555" stroke-width="0.3"/>
  <!-- Mouth grille -->
  <path d="M13 19L16 20L19 19" fill="none" stroke="#444" stroke-width="0.5"/>
  <path d="M13.5 20L16 21L18.5 20" fill="none" stroke="#444" stroke-width="0.5"/>
  <path d="M14 21L16 22L18 21" fill="none" stroke="#444" stroke-width="0.5"/>
  <!-- Helmet ridges -->
  <path d="M16 4L16 25" fill="none" stroke="#444" stroke-width="0.3" opacity="0.5"/>
  <!-- Chin -->
  <path d="M12 24L14 27L18 27L20 24" fill="#111" stroke="#333" stroke-width="0.3"/>
</svg>
